<svg width="239" height="50" fill="none" xmlns="http://www.w3.org/2000/svg"><g clip-path="url(#clip0)"><path d="M100.471 22.8h-4.6v-6.2h-5.3v16.7h5.4v-5.9h4.6v5.9h5.4V16.6h-5.4v6.2h-.1zm49.8 0h-4.6v-6.2h-5.4v16.7h5.4v-5.9h4.6v5.9h5.4V16.6h-5.4v6.2zm81.9-1.3h-2.6v-4.9h-5.4v16.7h7.9c3.5 0 6.3-1.9 6.3-5.3v-1.2c.1-3.4-2.8-5.3-6.2-5.3zm-.6 7.7h-2v-3.6h1.8c1.5 0 1.9 1.1 1.9 1.8 0 1.5-1.3 1.8-1.7 1.8zm-34-2.2h6v-4h-6v-2h6.6v-4.3h-12v16.7h12.4V29h-7v-2zm-6.6-10.4h-5.8l-2.8 6.3h-1.3v-6.3h-5.4v16.7h5.4v-5.9h1.3l2.9 5.9h6.2l-4.5-8.4 4-8.3zm-74.4-.2h-2.6c-3.5 0-6.3 2.5-6.3 6.3v4.7c0 3.9 2.8 6.3 6.3 6.3h2.6c3.5 0 6.3-2.5 6.3-6.3v-4.7c.1-4.1-2.8-6.3-6.3-6.3zm1 11.3c0 1.1-.9 2-2 2h-.5c-1.1 0-2-.9-2-2v-5.4c0-1.1.9-2 2-2h.5c1.1 0 2 .9 2 2v5.4zm91.1-2.2c0 2.5-.7 2.9-1.6 3.3-.4.2-1.5.2-1.5.2v4.4h2.1c4.5 0 6.2-2.6 6.2-8.5v-3.8h3v12.3h5.4V16.6h-13.5v8.9h-.1zm-76-8.9h-7.9v16.7h5.4v-4.1h2.6c3.5 0 6.3-1.9 6.3-5.3V22c-.1-3.5-2.9-5.4-6.4-5.4zm1.1 6.8c0 .6-.3 1.8-1.9 1.8h-1.8v-4.4h2c.5 0 1.6.4 1.6 1.7v.9h.1zm29.3 1.7v-8.4h-5.1v16.7h4.7l5.5-8.4v8.4h5.1V16.6h-4.7l-5.5 8.5z" fill="#333"/><path d="M25.571 33.1l25 16.9V16.9l-25-16.9v33.1z" fill="#00589C"/><path d="M.571 25c0 13.8 11.2 25 25 25V0c-13.8 0-25 11.2-25 25zm50-25v50c13.8 0 25-11.2 25-25s-11.2-25-25-25z" fill="#0080C8"/></g><defs><clipPath id="clip0"><path fill="#fff" d="M.571 0h237.9v50H.571z"/></clipPath></defs></svg>