<svg width="179" height="50" fill="none" xmlns="http://www.w3.org/2000/svg"><g clip-path="url(#clip0)"><path fill="#fff" d="M0 0h178.571v50H0z"/><path fill-rule="evenodd" clip-rule="evenodd" d="M54.406 4.413l-.01 7.81-.098 1.556.99-1.334 9.626-10.21c1.297-1.4 3.46-1.98 5.225-1.269 1.383.557 2.218 1.872 2.21 3.447l.011 28.984-27.332.01-8.406 8.281 35.738.022-.004 6.946h-44.51c-1.334-.001-2.711-.677-3.25-2.024-.62-1.555.226-3.155 1.295-4.244l13.845-14.095c1.31-1.246 2.861-2.011 4.685-2.011h21.114l.014-14.671L54.801 22.64c-1.192 1.153-3.075 1.74-4.585 1.073-1.255-.555-2.186-1.98-2.185-3.42l.008-9.07-37.076 37.433H1.046L46.977 2.228C48.273.832 50.434.256 52.196.966c1.382.558 2.21 1.871 2.21 3.447zm103.072 35.589h5.227v2.932c0 4.097-2.228 6.145-6.684 6.145-2.007 0-3.548-.437-4.625-1.31-1.33-1.08-1.996-2.807-1.996-5.178V32.484c0-2.35.666-4.065 1.996-5.146 1.098-.895 2.64-1.342 4.625-1.342 2.154 0 3.749.385 4.783 1.154 1.268.936 1.901 2.527 1.901 4.773v2.433h-5.227v-3.057c0-.52-.105-.94-.322-1.264-.211-.322-.587-.483-1.119-.483-.491 0-.845.161-1.056.483-.216.323-.323.744-.323 1.264v12.477c0 .54.101.967.307 1.28.201.311.559.467 1.072.467.532 0 .908-.16 1.119-.483.217-.323.322-.744.322-1.264v-3.774zm-9.515 8.641h-4.309V30.457l-3.452 18.186h-6.685v-22.21h4.308l.011 15.784 2.905-15.784h7.222v22.21zm-23.93-19.028v5.864h.856c.675 0 1.14-.146 1.393-.437.36-.415.539-1.247.539-2.495 0-1.164-.138-1.924-.412-2.277-.359-.437-1.151-.655-2.376-.655zm0 9.015v6.83c.127.022.317.032.57.032.993 0 1.637-.343 1.932-1.03.191-.457.286-1.34.286-2.65 0-1.498-.179-2.424-.539-2.777-.274-.27-1.024-.405-2.249-.405zm-5.259 10.013v-22.21h5.323c3.484 0 5.702.436 6.652 1.31.886.811 1.331 2.173 1.331 4.087 0 1.413-.243 2.516-.729 3.306-.591.978-1.595 1.528-3.01 1.653v.218c1.542 0 2.587.52 3.136 1.56.401.749.603 1.997.603 3.743 0 2.828-.634 4.648-1.901 5.46-.929.581-2.957.873-6.082.873h-5.323zm-9.084-19.028v7.267h.824c.866 0 1.425-.27 1.678-.81.19-.416.285-1.352.285-2.807 0-1.124-.042-1.882-.126-2.278-.19-.915-.803-1.372-1.837-1.372h-.824zm0 19.028h-5.259v-22.21h6.431c2.281 0 3.949.312 5.005.935 1.246.75 1.87 2.028 1.87 3.838v4.055c0 1.58-.624 2.797-1.87 3.649-1.119.77-2.534 1.154-4.245 1.154h-1.932v8.579zm-6.589 0H92.204v-22.21h10.897v3.369h-5.639v4.866h3.851v3.369h-3.85v7.237h5.638v3.369zm-17.898-8.641h5.227v2.932c0 4.097-2.228 6.145-6.684 6.145-2.007 0-3.548-.437-4.625-1.31-1.33-1.08-1.996-2.807-1.996-5.178V32.484c0-2.35.666-4.065 1.996-5.146 1.098-.895 2.64-1.342 4.625-1.342 2.154 0 3.749.385 4.783 1.154 1.268.936 1.901 2.527 1.901 4.773v2.433h-5.227v-3.057c0-.52-.105-.94-.322-1.264-.21-.322-.586-.483-1.12-.483-.49 0-.844.161-1.055.483-.216.323-.323.744-.323 1.264v12.477c0 .54.101.967.307 1.28.2.311.56.467 1.072.467.533 0 .908-.16 1.119-.483.217-.323.322-.744.322-1.264v-3.774zm47.661-21.065c.76 0 1.252-.277 1.457-1.292.146-.723.222-2.381.222-4.96v-7.07c.013-2.958 1.341-4.503 4.113-4.499h8.748v22.21h-5.258V4.486h-2.788v8.199c0 2.74-.078 4.598-.221 5.552-.255 1.704-.819 2.941-1.68 3.712-.993.89-2.523 1.342-4.593 1.342v-4.354zm-8.49-4.439h1.901l-.919-9.888-.982 9.888zm-2.027-13.382h7.222l2.915 22.21h-5.227l-.602-5.459h-2.851l-.855 5.46h-4.435l3.833-22.21zm-41.041 22.21h-4.212V1.116h7.745l2.217 15.79 2.265-15.79h7.57v22.21h-4.75V4.61l-3.105 18.716H84.41L81.371 4.61l-.065 18.716zm27.782 0H98.191V1.116h22.255v3.37h-3.675v18.84h-5.258V4.486h-8.064v4.866h3.851v3.368h-3.851v7.237h5.639v3.37z" fill="#333"/><path fill-rule="evenodd" clip-rule="evenodd" d="M148.165 23.29v-4.353c.76 0 1.253-.277 1.457-1.292.146-.723.222-2.381.222-4.96v-7.07c.013-2.958 1.341-4.503 4.114-4.499h8.747v22.21h-5.258V4.486h-2.788v8.199c0 2.74-.078 4.598-.221 5.552-.255 1.704-.818 2.941-1.68 3.712-.993.89-2.523 1.342-4.593 1.342zm24.588-21.443a4.576 4.576 0 014.582 4.581 4.576 4.576 0 01-4.582 4.582 4.575 4.575 0 01-4.581-4.582 4.575 4.575 0 014.581-4.58zm0-.72a5.3 5.3 0 015.303 5.301 5.3 5.3 0 01-5.303 5.303 5.3 5.3 0 01-5.303-5.303 5.3 5.3 0 015.303-5.302zm-1.124 3.055h1.116c.721 0 1.326.116 1.326.954 0 .395-.302 1-1.326 1h-1.116V4.181zm-1.233 5.326h1.233V7.042h.907c2.07 0 .558 1.721 1.535 2.466h1.233c-.21-.21-.21-.628-.21-1.42 0-.534 0-1.348-.907-1.348v-.186c.907-.302 1.117-1.023 1.117-1.418 0-1.443-1.35-1.768-2.14-1.768h-2.768v6.14z" fill="#fff"/></g><defs><clipPath id="clip0"><path fill="#fff" d="M0 0h178.571v50H0z"/></clipPath></defs></svg>